<svg width="150" height="60" viewBox="0 0 150 60" fill="none" xmlns="http://www.w3.org/2000/svg">
<rect x="0.194158" y="0.194158" width="149.612" height="59.6117" rx="1.35911" stroke="#006F6A" stroke-width="0.388316"/>
<path d="M91.3441 26.7369H90.0016V26.6677H75.0016V33.3344H84.4208C83.0466 37.2152 79.3541 40.0011 75.0016 40.0011C69.4791 40.0011 65.0016 35.5236 65.0016 30.0011C65.0016 24.4786 69.4791 20.0011 75.0016 20.0011C77.5508 20.0011 79.87 20.9627 81.6358 22.5336L86.35 17.8194C83.3733 15.0452 79.3916 13.3344 75.0016 13.3344C65.7975 13.3344 58.335 20.7969 58.335 30.0011C58.335 39.2052 65.7975 46.6677 75.0016 46.6677C84.2058 46.6677 91.6683 39.2052 91.6683 30.0011C91.6683 28.8836 91.5533 27.7927 91.3441 26.7369Z" fill="#FFC107"/>
<path d="M60.2549 22.2436L65.7307 26.2594C67.2124 22.5911 70.8007 20.0011 74.9999 20.0011C77.549 20.0011 79.8682 20.9627 81.634 22.5336L86.3482 17.8194C83.3715 15.0452 79.3899 13.3344 74.9999 13.3344C68.5982 13.3344 63.0465 16.9486 60.2549 22.2436Z" fill="#FF3D00"/>
<path d="M75.0016 46.6677C79.3066 46.6677 83.2182 45.0202 86.1757 42.3411L81.0174 37.9761C79.2878 39.2914 77.1744 40.0028 75.0016 40.0011C70.6666 40.0011 66.9857 37.2369 65.5991 33.3794L60.1641 37.5669C62.9224 42.9644 68.5241 46.6677 75.0016 46.6677Z" fill="#4CAF50"/>
<path d="M91.3435 26.7366H90.001V26.6674H75.001V33.3341H84.4201C83.7628 35.1811 82.5788 36.7951 81.0143 37.9766L81.0168 37.9749L86.1751 42.3399C85.8101 42.6716 91.6676 38.3341 91.6676 30.0008C91.6676 28.8833 91.5526 27.7924 91.3435 26.7366Z" fill="#1976D2"/>
</svg>
